# xmcd
#
# Track frame offsets: 
#        150
#        83562
#        124647
#        194760
#        221870
#
# Disc length: 3986 seconds
#
# Revision: 0
# Processed by: cddbd v1.5.2PL0 Copyright (c) Steve Scherf et al.
# Submitted via: ExactAudioCopy v0.95b3
#
DISCID=450f9005
DTITLE=Led Zeppelin  - THE LAST - Disc 2
DYEAR=1900
DGENRE=
TTITLE0=White Summer\\Black Mountain Side
TTITLE1=Kashmir
TTITLE2=Stairway To Heaven
TTITLE3=Rock And Roll
TTITLE4=Whole Lotta Love
EXTD=
EXTT0=
EXTT1=
EXTT2=
EXTT3=
EXTT4=
PLAYORDER=
